<mxfile host="app.diagrams.net" agent="Mozilla/5.0 (Windows NT 10.0; Win64; x64) AppleWebKit/537.36 (KHTML, like Gecko) Chrome/130.0.0.0 Safari/537.36 Edg/130.0.0.0" version="24.7.12">
  <diagram name="Page-1" id="q8_AFYZs21WQwSMDB93K">
    <mxGraphModel dx="2864" dy="1070" grid="1" gridSize="10" guides="1" tooltips="1" connect="1" arrows="1" fold="1" page="1" pageScale="1" pageWidth="827" pageHeight="1169" math="0" shadow="0">
      <root>
        <mxCell id="0" />
        <mxCell id="1" parent="0" />
        <mxCell id="JBWEq9CAutGQJl6f9ikJ-10" value="" style="whiteSpace=wrap;html=1;aspect=fixed;fillColor=#d5e8d4;strokeColor=#82b366;" vertex="1" parent="1">
          <mxGeometry x="400" y="90" width="750" height="750" as="geometry" />
        </mxCell>
        <mxCell id="JBWEq9CAutGQJl6f9ikJ-9" value="" style="whiteSpace=wrap;html=1;aspect=fixed;fillColor=#f8cecc;strokeColor=#b85450;" vertex="1" parent="1">
          <mxGeometry x="-350" y="90" width="750" height="750" as="geometry" />
        </mxCell>
        <mxCell id="JBWEq9CAutGQJl6f9ikJ-1" value="&lt;font style=&quot;font-size: 24px;&quot;&gt;Cluster K8S&lt;/font&gt;" style="whiteSpace=wrap;html=1;aspect=fixed;" vertex="1" parent="1">
          <mxGeometry y="210" width="210" height="210" as="geometry" />
        </mxCell>
        <mxCell id="JBWEq9CAutGQJl6f9ikJ-2" value="" style="endArrow=none;html=1;rounded=0;" edge="1" parent="1">
          <mxGeometry width="50" height="50" relative="1" as="geometry">
            <mxPoint x="400" y="710" as="sourcePoint" />
            <mxPoint x="400" y="120" as="targetPoint" />
          </mxGeometry>
        </mxCell>
        <mxCell id="JBWEq9CAutGQJl6f9ikJ-3" value="" style="endArrow=none;html=1;rounded=0;entryX=0.5;entryY=1;entryDx=0;entryDy=0;" edge="1" parent="1">
          <mxGeometry width="50" height="50" relative="1" as="geometry">
            <mxPoint x="104.29" y="590" as="sourcePoint" />
            <mxPoint x="104.29" y="420" as="targetPoint" />
          </mxGeometry>
        </mxCell>
        <mxCell id="JBWEq9CAutGQJl6f9ikJ-4" value="&lt;font style=&quot;font-size: 24px;&quot;&gt;VSAN NANTES&lt;/font&gt;" style="rounded=0;whiteSpace=wrap;html=1;" vertex="1" parent="1">
          <mxGeometry x="-160" y="590" width="530" height="120" as="geometry" />
        </mxCell>
        <mxCell id="JBWEq9CAutGQJl6f9ikJ-7" value="&lt;font style=&quot;font-size: 24px;&quot;&gt;VSAN ANGERS&lt;/font&gt;" style="rounded=0;whiteSpace=wrap;html=1;" vertex="1" parent="1">
          <mxGeometry x="420" y="590" width="530" height="120" as="geometry" />
        </mxCell>
        <mxCell id="JBWEq9CAutGQJl6f9ikJ-8" value="&lt;span style=&quot;font-size: 24px;&quot;&gt;Cluster K8S&lt;/span&gt;" style="whiteSpace=wrap;html=1;aspect=fixed;" vertex="1" parent="1">
          <mxGeometry x="520" y="210" width="210" height="210" as="geometry" />
        </mxCell>
        <mxCell id="JBWEq9CAutGQJl6f9ikJ-11" value="&lt;font style=&quot;font-size: 26px;&quot;&gt;Nantes&lt;/font&gt;" style="text;html=1;align=center;verticalAlign=middle;whiteSpace=wrap;rounded=0;" vertex="1" parent="1">
          <mxGeometry x="-300" y="120" width="60" height="30" as="geometry" />
        </mxCell>
        <mxCell id="JBWEq9CAutGQJl6f9ikJ-12" value="&lt;font style=&quot;font-size: 26px;&quot;&gt;Angers&lt;/font&gt;" style="text;html=1;align=center;verticalAlign=middle;whiteSpace=wrap;rounded=0;" vertex="1" parent="1">
          <mxGeometry x="1040" y="110" width="60" height="30" as="geometry" />
        </mxCell>
        <mxCell id="JBWEq9CAutGQJl6f9ikJ-13" value="" style="endArrow=none;html=1;rounded=0;entryX=0.5;entryY=1;entryDx=0;entryDy=0;" edge="1" parent="1">
          <mxGeometry width="50" height="50" relative="1" as="geometry">
            <mxPoint x="624.29" y="590" as="sourcePoint" />
            <mxPoint x="624.29" y="420" as="targetPoint" />
          </mxGeometry>
        </mxCell>
      </root>
    </mxGraphModel>
  </diagram>
</mxfile>
